# xmcd CD database file
#
# Track frame offsets:
#	150
#	15615
#	30029
#	45764
#	61614
#	76791
#	93699
#	106231
#
# Disc length: 1601 seconds
#
# Revision: 0
# Processed by: cddbd v1.5.1PL0 Copyright (c) Steve Scherf et al.
# Submitted via: CDex 1.51
#
DISCID=44063f08
DTITLE=Alfonzo Blackwell - Sax You Down Disc 2
DYEAR=1900
DGENRE=Jazz
TTITLE0=Sax Up Up
TTITLE1=Let Me Out
TTITLE2=Looking Fine
TTITLE3=Sax You Down 9Remix)
TTITLE4=Take One (Remix)
TTITLE5=Dance For Me (Remix)
TTITLE6=Before I Go (Remix)
TTITLE7=Your Touch
EXTD=
EXTT0=
EXTT1=
EXTT2=
EXTT3=
EXTT4=
EXTT5=
EXTT6=
EXTT7=
PLAYORDER=
